{
  "accessors": [
    {
      "bufferView": 2,
      "componentType": 5126,
      "count": 25374,
      "max": [
        0.692034125328064,
        0.3840638995170593,
        1.8857330083847046
      ],
      "min": [
        -0.692034125328064,
        -0.213412806391716,
        -0.0016590720042586327
      ],
      "type": "VEC3"
    },
    {
      "bufferView": 2,
      "byteOffset": 304488,
      "componentType": 5126,
      "count": 25374,
      "max": [
        1.0,
        1.0,
        1.0
      ],
      "min": [
        -1.0,
        -0.9999788999557495,
        -1.0
      ],
      "type": "VEC3"
    },
    {
      "bufferView": 1,
      "componentType": 5126,
      "count": 25374,
      "max": [
        0.9992051124572754,
        0.9988232851028442
      ],
      "min": [
        0.0009597503230907023,
        0.0005115693202242255
      ],
      "type": "VEC2"
    },
    {
      "bufferView": 0,
      "componentType": 5125,
      "count": 25410,
      "type": "SCALAR"
    }
  ],
  "asset": {
    "extras": {
      "author": "RussianAstolfo (https://sketchfab.com/RussianAstolfo)",
      "license": "CC-BY-4.0 (http://creativecommons.org/licenses/by/4.0/)",
      "source": "https://sketchfab.com/3d-models/boneworks-omni-worker-0e790422d1384a528c9d0537e60e663c",
      "title": "Boneworks - Omni Worker"
    },
    "generator": "Sketchfab-16.7.0",
    "version": "2.0"
  },
  "bufferViews": [
    {
      "buffer": 0,
      "byteLength": 101640,
      "name": "floatBufferViews",
      "target": 34963
    },
    {
      "buffer": 0,
      "byteLength": 202992,
      "byteOffset": 101640,
      "byteStride": 8,
      "name": "floatBufferViews",
      "target": 34962
    },
    {
      "buffer": 0,
      "byteLength": 608976,
      "byteOffset": 304632,
      "byteStride": 12,
      "name": "floatBufferViews",
      "target": 34962
    }
  ],
  "buffers": [
    {
      "byteLength": 913608,
      "uri": "scene.bin"
    }
  ],
  "images": [
    {
      "uri": "textures/Worker_Body_baseColor.png"
    }
  ],
  "materials": [
    {
      "doubleSided": true,
      "name": "Worker_Body",
      "pbrMetallicRoughness": {
        "baseColorTexture": {
          "index": 0
        },
        "metallicFactor": 0.0,
        "roughnessFactor": 0.8211145618000169
      }
    }
  ],
  "meshes": [
    {
      "name": "BioWorker_LOD2_Worker_Body_0",
      "primitives": [
        {
          "attributes": {
            "NORMAL": 1,
            "POSITION": 0,
            "TEXCOORD_0": 2
          },
          "indices": 3,
          "material": 0,
          "mode": 4
        }
      ]
    }
  ],
  "nodes": [
    {
      "children": [
        1
      ],
      "matrix": [
        1.0,
        0.0,
        0.0,
        0.0,
        0.0,
        2.220446049250313e-16,
        -1.0,
        0.0,
        0.0,
        1.0,
        2.220446049250313e-16,
        0.0,
        0.0,
        0.0,
        0.0,
        1.0
      ],
      "name": "Sketchfab_model"
    },
    {
      "children": [
        2
      ],
      "matrix": [
        0.009999999776482582,
        0.0,
        0.0,
        0.0,
        0.0,
        0.0,
        0.009999999776482582,
        0.0,
        0.0,
        -0.009999999776482582,
        0.0,
        0.0,
        0.0,
        0.0,
        0.0,
        1.0
      ],
      "name": "Bioworker.fbx"
    },
    {
      "children": [
        3
      ],
      "name": "RootNode"
    },
    {
      "children": [
        4
      ],
      "matrix": [
        346.377197265625,
        0.0,
        0.0,
        0.0,
        0.0,
        -10.8739666041539,
        -346.20653072733603,
        0.0,
        0.0,
        346.20653072733603,
        -10.8739666041539,
        0.0,
        0.0,
        0.0,
        0.0,
        1.0
      ],
      "name": "BioWorker_LOD2"
    },
    {
      "mesh": 0,
      "name": "BioWorker_LOD2_Worker_Body_0"
    }
  ],
  "samplers": [
    {
      "magFilter": 9729,
      "minFilter": 9987,
      "wrapS": 10497,
      "wrapT": 10497
    }
  ],
  "scene": 0,
  "scenes": [
    {
      "name": "Sketchfab_Scene",
      "nodes": [
        0
      ]
    }
  ],
  "textures": [
    {
      "sampler": 0,
      "source": 0
    }
  ]
}
