{
  "accessors": [
    {
      "bufferView": 2,
      "componentType": 5126,
      "count": 6424,
      "max": [
        1.0099371671676636,
        0.6956933736801147,
        2.399744749069214
      ],
      "min": [
        -1.023242473602295,
        -0.7430562973022461,
        -2.0910351276397705
      ],
      "type": "VEC3"
    },
    {
      "bufferView": 2,
      "byteOffset": 77088,
      "componentType": 5126,
      "count": 6424,
      "max": [
        0.9999918937683105,
        0.9999895691871643,
        1.0
      ],
      "min": [
        -0.9999932646751404,
        -0.9999986886978149,
        -1.0
      ],
      "type": "VEC3"
    },
    {
      "bufferView": 1,
      "componentType": 5126,
      "count": 6424,
      "max": [
        1.0,
        0.9999999403953552
      ],
      "min": [
        0.0,
        0.0
      ],
      "type": "VEC2"
    },
    {
      "bufferView": 0,
      "componentType": 5125,
      "count": 27771,
      "type": "SCALAR"
    },
    {
      "bufferView": 2,
      "byteOffset": 154176,
      "componentType": 5126,
      "count": 637,
      "max": [
        0.10600541532039642,
        0.3298816978931427,
        0.3320764899253845
      ],
      "min": [
        -0.09378544986248016,
        -0.3298817276954651,
        -0.3320761024951935
      ],
      "type": "VEC3"
    },
    {
      "bufferView": 2,
      "byteOffset": 161820,
      "componentType": 5126,
      "count": 637,
      "max": [
        1.0,
        1.0,
        0.984575629234314
      ],
      "min": [
        -1.0,
        -1.0,
        -0.9845753908157349
      ],
      "type": "VEC3"
    },
    {
      "bufferView": 1,
      "byteOffset": 51392,
      "componentType": 5126,
      "count": 637,
      "max": [
        0.9422852993011475,
        0.7826441526412964
      ],
      "min": [
        0.8087127208709717,
        0.5993959307670593
      ],
      "type": "VEC2"
    },
    {
      "bufferView": 0,
      "byteOffset": 111084,
      "componentType": 5125,
      "count": 1704,
      "type": "SCALAR"
    },
    {
      "bufferView": 2,
      "byteOffset": 169464,
      "componentType": 5126,
      "count": 637,
      "max": [
        0.10600541532039642,
        0.3298816978931427,
        0.3320764899253845
      ],
      "min": [
        -0.09378544986248016,
        -0.3298817276954651,
        -0.3320761024951935
      ],
      "type": "VEC3"
    },
    {
      "bufferView": 2,
      "byteOffset": 177108,
      "componentType": 5126,
      "count": 637,
      "max": [
        1.0,
        1.0,
        0.984575629234314
      ],
      "min": [
        -1.0,
        -1.0,
        -0.9845753908157349
      ],
      "type": "VEC3"
    },
    {
      "bufferView": 1,
      "byteOffset": 56488,
      "componentType": 5126,
      "count": 637,
      "max": [
        0.9422852993011475,
        0.7826441526412964
      ],
      "min": [
        0.8087127208709717,
        0.5993959307670593
      ],
      "type": "VEC2"
    },
    {
      "bufferView": 0,
      "byteOffset": 117900,
      "componentType": 5125,
      "count": 1704,
      "type": "SCALAR"
    },
    {
      "bufferView": 2,
      "byteOffset": 184752,
      "componentType": 5126,
      "count": 637,
      "max": [
        0.09378544986248016,
        0.3298817574977875,
        0.3320761024951935
      ],
      "min": [
        -0.10600541532039642,
        -0.32988178730010986,
        -0.33207646012306213
      ],
      "type": "VEC3"
    },
    {
      "bufferView": 2,
      "byteOffset": 192396,
      "componentType": 5126,
      "count": 637,
      "max": [
        1.0,
        1.0,
        0.9845753908157349
      ],
      "min": [
        -1.0,
        -1.0,
        -0.9845755100250244
      ],
      "type": "VEC3"
    },
    {
      "bufferView": 1,
      "byteOffset": 61584,
      "componentType": 5126,
      "count": 637,
      "max": [
        0.9422852993011475,
        0.7826441526412964
      ],
      "min": [
        0.8087127208709717,
        0.5993959307670593
      ],
      "type": "VEC2"
    },
    {
      "bufferView": 0,
      "byteOffset": 124716,
      "componentType": 5125,
      "count": 1704,
      "type": "SCALAR"
    },
    {
      "bufferView": 2,
      "byteOffset": 200040,
      "componentType": 5126,
      "count": 637,
      "max": [
        0.09378544986248016,
        0.3298817574977875,
        0.3320761024951935
      ],
      "min": [
        -0.10600541532039642,
        -0.32988178730010986,
        -0.33207646012306213
      ],
      "type": "VEC3"
    },
    {
      "bufferView": 2,
      "byteOffset": 207684,
      "componentType": 5126,
      "count": 637,
      "max": [
        1.0,
        1.0,
        0.9845753908157349
      ],
      "min": [
        -1.0,
        -1.0,
        -0.9845755100250244
      ],
      "type": "VEC3"
    },
    {
      "bufferView": 1,
      "byteOffset": 66680,
      "componentType": 5126,
      "count": 637,
      "max": [
        0.9422852993011475,
        0.7826441526412964
      ],
      "min": [
        0.8087127208709717,
        0.5993959307670593
      ],
      "type": "VEC2"
    },
    {
      "bufferView": 0,
      "byteOffset": 131532,
      "componentType": 5125,
      "count": 1704,
      "type": "SCALAR"
    }
  ],
  "asset": {
    "extras": {
      "author": "Ashkelon (https://sketchfab.com/Ashkelon)",
      "license": "CC-BY-4.0 (http://creativecommons.org/licenses/by/4.0/)",
      "source": "https://sketchfab.com/3d-models/izh-2715-pickup-e40df534b7af43d08b4833d3a77c197f",
      "title": "IZH-2715-PICKUP"
    },
    "generator": "Sketchfab-15.77.0",
    "version": "2.0"
  },
  "bufferViews": [
    {
      "buffer": 0,
      "byteLength": 138348,
      "name": "floatBufferViews",
      "target": 34963
    },
    {
      "buffer": 0,
      "byteLength": 71776,
      "byteOffset": 138348,
      "byteStride": 8,
      "name": "floatBufferViews",
      "target": 34962
    },
    {
      "buffer": 0,
      "byteLength": 215328,
      "byteOffset": 210124,
      "byteStride": 12,
      "name": "floatBufferViews",
      "target": 34962
    }
  ],
  "buffers": [
    {
      "byteLength": 425452,
      "uri": "scene.bin"
    }
  ],
  "images": [
    {
      "uri": "textures/OldCar_baseColor.png"
    },
    {
      "uri": "textures/OldCar_metallicRoughness.png"
    }
  ],
  "materials": [
    {
      "doubleSided": true,
      "name": "OldCar",
      "pbrMetallicRoughness": {
        "baseColorTexture": {
          "index": 0
        },
        "metallicRoughnessTexture": {
          "index": 1
        }
      }
    }
  ],
  "meshes": [
    {
      "name": "OldCar_OldCar_0",
      "primitives": [
        {
          "attributes": {
            "NORMAL": 1,
            "POSITION": 0,
            "TEXCOORD_0": 2
          },
          "indices": 3,
          "material": 0,
          "mode": 4
        }
      ]
    },
    {
      "name": "Cylinder.003_OldCar_0",
      "primitives": [
        {
          "attributes": {
            "NORMAL": 5,
            "POSITION": 4,
            "TEXCOORD_0": 6
          },
          "indices": 7,
          "material": 0,
          "mode": 4
        }
      ]
    },
    {
      "name": "Cylinder.002_OldCar_0",
      "primitives": [
        {
          "attributes": {
            "NORMAL": 9,
            "POSITION": 8,
            "TEXCOORD_0": 10
          },
          "indices": 11,
          "material": 0,
          "mode": 4
        }
      ]
    },
    {
      "name": "Cylinder.001_OldCar_0",
      "primitives": [
        {
          "attributes": {
            "NORMAL": 13,
            "POSITION": 12,
            "TEXCOORD_0": 14
          },
          "indices": 15,
          "material": 0,
          "mode": 4
        }
      ]
    },
    {
      "name": "Cylinder_OldCar_0",
      "primitives": [
        {
          "attributes": {
            "NORMAL": 17,
            "POSITION": 16,
            "TEXCOORD_0": 18
          },
          "indices": 19,
          "material": 0,
          "mode": 4
        }
      ]
    }
  ],
  "nodes": [
    {
      "children": [
        1
      ],
      "matrix": [
        1.0,
        0.0,
        0.0,
        0.0,
        0.0,
        2.220446049250313e-16,
        -1.0,
        0.0,
        0.0,
        1.0,
        2.220446049250313e-16,
        0.0,
        0.0,
        0.0,
        0.0,
        1.0
      ],
      "name": "Sketchfab_model"
    },
    {
      "children": [
        2
      ],
      "matrix": [
        0.009999999776482582,
        0.0,
        0.0,
        0.0,
        0.0,
        0.0,
        0.009999999776482582,
        0.0,
        0.0,
        -0.009999999776482582,
        0.0,
        0.0,
        0.0,
        0.0,
        0.0,
        1.0
      ],
      "name": "05253410b9944dc69c2343e319baa57d.fbx"
    },
    {
      "children": [
        3
      ],
      "name": "RootNode"
    },
    {
      "children": [
        4,
        5,
        7,
        9,
        11
      ],
      "matrix": [
        100.0,
        0.0,
        0.0,
        0.0,
        0.0,
        99.9999999999999,
        4.371138828673792e-06,
        0.0,
        0.0,
        -4.371138828673792e-06,
        99.9999999999999,
        0.0,
        0.0,
        92.5863265991211,
        0.0,
        1.0
      ],
      "name": "OldCar"
    },
    {
      "mesh": 0,
      "name": "OldCar_OldCar_0"
    },
    {
      "children": [
        6
      ],
      "matrix": [
        1.0,
        0.0,
        0.0,
        0.0,
        0.0,
        1.0,
        0.0,
        0.0,
        0.0,
        0.0,
        1.0,
        0.0,
        0.654521644115448,
        -0.6100999116897583,
        -0.9477730393409729,
        1.0
      ],
      "name": "Cylinder.003"
    },
    {
      "mesh": 1,
      "name": "Cylinder.003_OldCar_0"
    },
    {
      "children": [
        8
      ],
      "matrix": [
        0.9063077068933665,
        -1.847322829158246e-08,
        -0.42261829257191585,
        0.0,
        1.8473228588815876e-08,
        0.9999999999999998,
        -4.0954186810104386e-09,
        0.0,
        0.42261829257191585,
        -4.095414810941242e-09,
        0.9063077068933666,
        0.0,
        0.6545218825340271,
        -0.6100998520851135,
        1.687373399734497,
        1.0
      ],
      "name": "Cylinder.002"
    },
    {
      "mesh": 2,
      "name": "Cylinder.002_OldCar_0"
    },
    {
      "children": [
        10
      ],
      "matrix": [
        1.0,
        0.0,
        0.0,
        0.0,
        0.0,
        1.0,
        0.0,
        0.0,
        0.0,
        0.0,
        1.0,
        0.0,
        -0.6913191676139832,
        -0.6100999116897583,
        -0.9477731585502625,
        1.0
      ],
      "name": "Cylinder.001"
    },
    {
      "mesh": 3,
      "name": "Cylinder.001_OldCar_0"
    },
    {
      "children": [
        12
      ],
      "matrix": [
        0.9063077068933665,
        -1.847322829158246e-08,
        -0.42261829257191585,
        0.0,
        1.8473228588815876e-08,
        0.9999999999999998,
        -4.0954186810104386e-09,
        0.0,
        0.42261829257191585,
        -4.095414810941242e-09,
        0.9063077068933666,
        0.0,
        -0.6913191676139832,
        -0.6100998520851135,
        1.6873735189437866,
        1.0
      ],
      "name": "Cylinder"
    },
    {
      "mesh": 4,
      "name": "Cylinder_OldCar_0"
    }
  ],
  "samplers": [
    {
      "magFilter": 9729,
      "minFilter": 9987,
      "wrapS": 10497,
      "wrapT": 10497
    }
  ],
  "scene": 0,
  "scenes": [
    {
      "name": "Sketchfab_Scene",
      "nodes": [
        0
      ]
    }
  ],
  "textures": [
    {
      "sampler": 0,
      "source": 0
    },
    {
      "sampler": 0,
      "source": 1
    }
  ]
}
